<svg xmlns="http://www.w3.org/2000/svg" width="48" height="39" viewBox="0 0 48 39">
  <g id="Group_11059" data-name="Group 11059" transform="translate(-36 -748)">
    <text id="Bookings" transform="translate(60 784)" fill="#acb2c4" font-size="10" font-family="Montserrat-Regular, Montserrat"><tspan x="-23.62" y="0">Bookings</tspan></text>
    <g id="Group_9628" data-name="Group 9628" transform="translate(50 748)">
      <path id="Path_13283" data-name="Path 13283" d="M-2098.617-21.5a2.433,2.433,0,0,0-2.373-2.415c-.737-.017-1.474,0-2.211-.005h-.245c0-.2-.01-.384,0-.565a.9.9,0,0,0-.658-1.021h-.328a.9.9,0,0,0-.657,1.019c.013.181,0,.364,0,.556h-8.026c0-.2-.01-.389,0-.577a.89.89,0,0,0-.657-1h-.328a.891.891,0,0,0-.657,1c.012.183,0,.367,0,.576-.081,0-.152.009-.224.01l-2.065,0a2.446,2.446,0,0,0-2.511,2.067.351.351,0,0,1-.032.073v15.11a3.02,3.02,0,0,0,.5,1.15,2.368,2.368,0,0,0,1.919.975q8.066.012,16.132,0a2.438,2.438,0,0,0,2.415-2.42Q-2098.608-14.235-2098.617-21.5Zm-1.635,5.594q0,4.391,0,8.781a.838.838,0,0,1-.942.945H-2117a.839.839,0,0,1-.945-.943V-17.416h17.689Zm0-3.178h-17.686c0-.83-.011-1.648.005-2.465a.744.744,0,0,1,.672-.716c.83-.022,1.661-.007,2.513-.007,0,.26,0,.511,0,.761a.826.826,0,0,0,.818.865.827.827,0,0,0,.819-.865c0-.245,0-.49,0-.753h8.026c0,.227,0,.456,0,.686a.834.834,0,0,0,.813.93.837.837,0,0,0,.827-.94c-.015-.223,0-.447,0-.683.077,0,.137-.011.2-.011.7,0,1.405,0,2.108,0a.817.817,0,0,1,.89.891C-2100.251-20.63-2100.252-19.867-2100.252-19.087Z" transform="translate(2119.58 25.51)" fill="#acb2c4"/>
      <path id="Path_13284" data-name="Path 13284" d="M-2020.631,240.293c.252.006.5,0,.757,0v0c.266,0,.532.006.8,0a.828.828,0,0,0,.846-.818.819.819,0,0,0-.862-.818q-.767-.006-1.534,0a.816.816,0,0,0-.856.8A.832.832,0,0,0-2020.631,240.293Z" transform="translate(2025.507 -227.814)" fill="#acb2c4"/>
      <path id="Path_13285" data-name="Path 13285" d="M-1903,240.31a16.588,16.588,0,0,0,1.818,0,.785.785,0,0,0,.719-.826.811.811,0,0,0-.806-.789c-.272-.008-.545,0-.818,0s-.546-.006-.818,0a.81.81,0,0,0-.809.786A.781.781,0,0,0-1903,240.31Z" transform="translate(1912.571 -227.852)" fill="#acb2c4"/>
      <path id="Path_13286" data-name="Path 13286" d="M-1785.068,240.318c.245,0,.491,0,.737,0h0c.259,0,.518,0,.777,0a.836.836,0,0,0,.864-.825.821.821,0,0,0-.868-.812q-.757-.006-1.514,0a.816.816,0,0,0-.872.806A.833.833,0,0,0-1785.068,240.318Z" transform="translate(1799.633 -227.84)" fill="#acb2c4"/>
      <path id="Path_13287" data-name="Path 13287" d="M-2019.057,337.7q-.8-.009-1.6,0a.82.82,0,0,0-.823.817.825.825,0,0,0,.822.818c.266,0,.532,0,.8,0s.532,0,.8,0a.825.825,0,0,0,.834-.808A.821.821,0,0,0-2019.057,337.7Z" transform="translate(2025.501 -322.796)" fill="#acb2c4"/>
      <path id="Path_13288" data-name="Path 13288" d="M-1902.918,339.335c.266.005.532,0,.8,0s.546.005.818,0a.819.819,0,0,0,.81-.809.818.818,0,0,0-.815-.825q-.808-.011-1.616,0a.824.824,0,0,0-.822.82A.827.827,0,0,0-1902.918,339.335Z" transform="translate(1912.6 -322.793)" fill="#acb2c4"/>
      <path id="Path_13289" data-name="Path 13289" d="M-1783.517,337.722q-.8-.008-1.6,0a.82.82,0,0,0-.824.816.824.824,0,0,0,.822.819c.266.005.532,0,.8,0s.532,0,.8,0a.825.825,0,0,0,.834-.828A.817.817,0,0,0-1783.517,337.722Z" transform="translate(1799.625 -322.816)" fill="#acb2c4"/>
    </g>
  </g>
</svg>
