<svg xmlns="http://www.w3.org/2000/svg" width="50" height="40" viewBox="0 0 50 40">
  <g id="Group_9649" data-name="Group 9649" transform="translate(-452 -5930)">
    <text id="Messages" transform="translate(477 5967)" fill="#acb2c4" font-size="10" font-family="Montserrat-Regular, Montserrat"><tspan x="-24.54" y="0">Messages</tspan></text>
    <g id="comments" transform="translate(464 5930)">
      <g id="Group_9625" data-name="Group 9625">
        <path id="Path_13281" data-name="Path 13281" d="M15.027,68.378a9.021,9.021,0,0,0,3.645-2.65,5.66,5.66,0,0,0,0-7.3,9.024,9.024,0,0,0-3.645-2.65A12.8,12.8,0,0,0,10,54.8a12.8,12.8,0,0,0-5.023.973,9.024,9.024,0,0,0-3.645,2.65A5.738,5.738,0,0,0,0,62.076a5.583,5.583,0,0,0,1.009,3.183A8.3,8.3,0,0,0,3.78,67.775q-.142.341-.291.625a3.6,3.6,0,0,1-.355.547q-.206.263-.32.412t-.369.419q-.256.27-.327.355c0-.01-.019.012-.057.064S2,70.273,2,70.268s-.024.019-.057.071l-.05.078-.036.071a.3.3,0,0,0-.028.085.556.556,0,0,0-.007.092.289.289,0,0,0,.014.092.472.472,0,0,0,.163.3.444.444,0,0,0,.291.113H2.33a11.92,11.92,0,0,0,1.222-.227A11.953,11.953,0,0,0,7.5,69.123a14.271,14.271,0,0,0,2.5.227A12.788,12.788,0,0,0,15.027,68.378Zm-7.95-1.186-.625.44q-.4.27-.881.554l.5-1.194-1.378-.8a6.534,6.534,0,0,1-2.117-1.876,3.871,3.871,0,0,1-.753-2.245,4.038,4.038,0,0,1,1.116-2.714,7.615,7.615,0,0,1,3.005-2A11.063,11.063,0,0,1,10,56.62a11.063,11.063,0,0,1,4.064.739,7.619,7.619,0,0,1,3.005,2,3.86,3.86,0,0,1,0,5.428,7.613,7.613,0,0,1-3.005,2A11.061,11.061,0,0,1,10,67.533a12.307,12.307,0,0,1-2.174-.2Z" transform="translate(0 -54.801)" fill="#acb2c4"/>
        <path id="Path_13282" data-name="Path 13282" d="M191.567,166.561a5.546,5.546,0,0,0-.057-6.458,8.422,8.422,0,0,0-2.9-2.529,7.313,7.313,0,0,1-.625,5.769,9.511,9.511,0,0,1-2.728,3.012,12.583,12.583,0,0,1-3.751,1.833,15.012,15.012,0,0,1-4.391.639q-.426,0-1.25-.057a11.94,11.94,0,0,0,6.707,1.876,14.278,14.278,0,0,0,2.5-.227,11.348,11.348,0,0,0,5.172,2.046.428.428,0,0,0,.313-.1.526.526,0,0,0,.185-.312c0-.057,0-.088.014-.093s.012-.035-.007-.092l-.028-.085-.035-.071a.681.681,0,0,0-.05-.078.628.628,0,0,0-.057-.071c-.014-.014-.035-.038-.064-.071s-.047-.054-.057-.064q-.071-.085-.327-.355t-.369-.419q-.114-.149-.32-.412a3.593,3.593,0,0,1-.355-.547q-.149-.284-.291-.625A8.334,8.334,0,0,0,191.567,166.561Z" transform="translate(-167.113 -152.458)" fill="#acb2c4"/>
      </g>
    </g>
  </g>
</svg>
