<svg xmlns="http://www.w3.org/2000/svg" width="34" height="40" viewBox="0 0 34 40">
  <g id="Group_9651" data-name="Group 9651" transform="translate(-659 -5930)">
    <text id="Profile" transform="translate(676 5967)" fill="#acb2c4" font-size="10" font-family="Montserrat-Regular, Montserrat"><tspan x="-16.355" y="0">Profile</tspan></text>
    <g id="user" transform="translate(666 5930)">
      <g id="Group_5813" data-name="Group 5813">
        <path id="Path_9455" data-name="Path 9455" d="M17.071,12.929a9.962,9.962,0,0,0-3.8-2.384,5.781,5.781,0,1,0-6.542,0A10.016,10.016,0,0,0,0,20H1.562a8.438,8.438,0,0,1,16.875,0H20A9.935,9.935,0,0,0,17.071,12.929ZM10,10a4.219,4.219,0,1,1,4.219-4.219A4.224,4.224,0,0,1,10,10Z" transform="translate(0)" fill="#acb2c4"/>
      </g>
    </g>
  </g>
</svg>
